<mxfile host="65bd71144e">
    <diagram id="2Q5nVtx4BR8TXtKDtNm_" name="Page-1">
        <mxGraphModel dx="3700" dy="452" grid="0" gridSize="10" guides="1" tooltips="1" connect="1" arrows="1" fold="1" page="1" pageScale="1" pageWidth="1920" pageHeight="1200" background="#FFFFFF" math="0" shadow="0">
            <root>
                <mxCell id="0"/>
                <mxCell id="1" parent="0"/>
                <mxCell id="249" value="&lt;b&gt;&lt;font style=&quot;font-size: 32px&quot; color=&quot;#1a1a1a&quot;&gt;Personal Learning App&lt;/font&gt;&lt;/b&gt;" style="text;html=1;fillColor=none;align=center;verticalAlign=middle;whiteSpace=wrap;rounded=1;shadow=1;sketch=0;glass=1;strokeWidth=4;perimeterSpacing=4;strokeColor=#A8DADC;" parent="1" vertex="1">
                    <mxGeometry x="754" y="35" width="449" height="49" as="geometry"/>
                </mxCell>
                <mxCell id="375" value="users" style="shape=table;startSize=33;container=1;collapsible=0;childLayout=tableLayout;fixedRows=1;rowLines=0;fontStyle=1;align=center;fillColor=#A8DADC;strokeColor=#457B9D;fontColor=#1D3557;rounded=1;shadow=0;" parent="1" vertex="1">
                    <mxGeometry x="341" y="185" width="440.15638732910156" height="142" as="geometry"/>
                </mxCell>
                <mxCell id="376" style="shape=partialRectangle;html=1;whiteSpace=wrap;collapsible=0;dropTarget=0;pointerEvents=0;fillColor=none;top=0;left=0;bottom=1;right=0;points=[[0,0.5],[1,0.5]];portConstraint=eastwest;strokeColor=#457B9D;fontColor=#1D3557;" parent="375" vertex="1">
                    <mxGeometry y="33" width="440.15638732910156" height="42" as="geometry"/>
                </mxCell>
                <mxCell id="377" value="&lt;u&gt;id&lt;/u&gt;" style="shape=partialRectangle;html=1;whiteSpace=wrap;connectable=0;fillColor=none;top=0;left=0;bottom=0;right=0;overflow=hidden;strokeColor=#457B9D;fontColor=#1D3557;" parent="376" vertex="1">
                    <mxGeometry width="27" height="42" as="geometry"/>
                </mxCell>
                <mxCell id="419" value="&lt;u&gt;email&lt;/u&gt;" style="shape=partialRectangle;html=1;whiteSpace=wrap;connectable=0;fillColor=none;top=0;left=0;bottom=0;right=0;align=left;spacingLeft=6;overflow=hidden;strokeColor=#457B9D;fontColor=#1D3557;" parent="376" vertex="1">
                    <mxGeometry x="27" width="87" height="42" as="geometry"/>
                </mxCell>
                <mxCell id="379" value="&lt;u&gt;username&lt;/u&gt;" style="shape=partialRectangle;html=1;whiteSpace=wrap;connectable=0;fillColor=none;top=0;left=0;bottom=0;right=0;align=left;spacingLeft=6;overflow=hidden;strokeColor=#457B9D;fontColor=#1D3557;fontStyle=4" parent="376" vertex="1">
                    <mxGeometry x="114" width="78" height="42" as="geometry"/>
                </mxCell>
                <mxCell id="380" value="password_digest" style="shape=partialRectangle;html=1;whiteSpace=wrap;connectable=0;fillColor=none;top=0;left=0;bottom=0;right=0;align=left;spacingLeft=6;overflow=hidden;strokeColor=#457B9D;fontColor=#1D3557;fontStyle=4" parent="376" vertex="1">
                    <mxGeometry x="192" width="111" height="42" as="geometry"/>
                </mxCell>
                <mxCell id="469" value="uid" style="shape=partialRectangle;html=1;whiteSpace=wrap;connectable=0;fillColor=none;top=0;left=0;bottom=0;right=0;align=left;spacingLeft=6;overflow=hidden;strokeColor=#457B9D;fontColor=#1D3557;fontStyle=4" parent="376" vertex="1">
                    <mxGeometry x="303" width="62" height="42" as="geometry"/>
                </mxCell>
                <mxCell id="466" value="provider" style="shape=partialRectangle;html=1;whiteSpace=wrap;connectable=0;fillColor=none;top=0;left=0;bottom=0;right=0;align=left;spacingLeft=6;overflow=hidden;strokeColor=#457B9D;fontColor=#1D3557;fontStyle=4" parent="376" vertex="1">
                    <mxGeometry x="365" width="75" height="42" as="geometry"/>
                </mxCell>
                <mxCell id="382" value="" style="shape=partialRectangle;html=1;whiteSpace=wrap;collapsible=0;dropTarget=0;pointerEvents=0;fillColor=none;top=0;left=0;bottom=1;right=0;points=[[0,0.5],[1,0.5]];portConstraint=eastwest;strokeColor=#457B9D;fontColor=#1D3557;" parent="375" vertex="1">
                    <mxGeometry y="75" width="440.15638732910156" height="30" as="geometry"/>
                </mxCell>
                <mxCell id="383" value="1" style="shape=partialRectangle;html=1;whiteSpace=wrap;connectable=0;fillColor=none;top=0;left=0;bottom=0;right=0;overflow=hidden;strokeColor=#457B9D;fontColor=#1D3557;" parent="382" vertex="1">
                    <mxGeometry width="27" height="30" as="geometry"/>
                </mxCell>
                <mxCell id="420" style="shape=partialRectangle;html=1;whiteSpace=wrap;connectable=0;fillColor=none;top=0;left=0;bottom=0;right=0;align=left;spacingLeft=6;overflow=hidden;strokeColor=#457B9D;fontColor=#1D3557;" parent="382" vertex="1">
                    <mxGeometry x="27" width="87" height="30" as="geometry"/>
                </mxCell>
                <mxCell id="385" value="" style="shape=partialRectangle;html=1;whiteSpace=wrap;connectable=0;fillColor=none;top=0;left=0;bottom=0;right=0;align=left;spacingLeft=6;overflow=hidden;strokeColor=#457B9D;fontColor=#1D3557;" parent="382" vertex="1">
                    <mxGeometry x="114" width="78" height="30" as="geometry"/>
                </mxCell>
                <mxCell id="386" style="shape=partialRectangle;html=1;whiteSpace=wrap;connectable=0;fillColor=none;top=0;left=0;bottom=0;right=0;align=left;spacingLeft=6;overflow=hidden;strokeColor=#457B9D;fontColor=#1D3557;" parent="382" vertex="1">
                    <mxGeometry x="192" width="111" height="30" as="geometry"/>
                </mxCell>
                <mxCell id="470" style="shape=partialRectangle;html=1;whiteSpace=wrap;connectable=0;fillColor=none;top=0;left=0;bottom=0;right=0;align=left;spacingLeft=6;overflow=hidden;strokeColor=#457B9D;fontColor=#1D3557;" parent="382" vertex="1">
                    <mxGeometry x="303" width="62" height="30" as="geometry"/>
                </mxCell>
                <mxCell id="467" style="shape=partialRectangle;html=1;whiteSpace=wrap;connectable=0;fillColor=none;top=0;left=0;bottom=0;right=0;align=left;spacingLeft=6;overflow=hidden;strokeColor=#457B9D;fontColor=#1D3557;" parent="382" vertex="1">
                    <mxGeometry x="365" width="75" height="30" as="geometry"/>
                </mxCell>
                <mxCell id="406" style="shape=partialRectangle;html=1;whiteSpace=wrap;collapsible=0;dropTarget=0;pointerEvents=0;fillColor=none;top=0;left=0;bottom=1;right=0;points=[[0,0.5],[1,0.5]];portConstraint=eastwest;strokeColor=#457B9D;fontColor=#1D3557;" parent="375" vertex="1">
                    <mxGeometry y="105" width="440.15638732910156" height="35" as="geometry"/>
                </mxCell>
                <mxCell id="407" value="2" style="shape=partialRectangle;html=1;whiteSpace=wrap;connectable=0;fillColor=none;top=0;left=0;bottom=0;right=0;overflow=hidden;strokeColor=#457B9D;fontColor=#1D3557;" parent="406" vertex="1">
                    <mxGeometry width="27" height="35" as="geometry"/>
                </mxCell>
                <mxCell id="421" style="shape=partialRectangle;html=1;whiteSpace=wrap;connectable=0;fillColor=none;top=0;left=0;bottom=0;right=0;align=left;spacingLeft=6;overflow=hidden;strokeColor=#457B9D;fontColor=#1D3557;" parent="406" vertex="1">
                    <mxGeometry x="27" width="87" height="35" as="geometry"/>
                </mxCell>
                <mxCell id="409" style="shape=partialRectangle;html=1;whiteSpace=wrap;connectable=0;fillColor=none;top=0;left=0;bottom=0;right=0;align=left;spacingLeft=6;overflow=hidden;strokeColor=#457B9D;fontColor=#1D3557;" parent="406" vertex="1">
                    <mxGeometry x="114" width="78" height="35" as="geometry"/>
                </mxCell>
                <mxCell id="410" style="shape=partialRectangle;html=1;whiteSpace=wrap;connectable=0;fillColor=none;top=0;left=0;bottom=0;right=0;align=left;spacingLeft=6;overflow=hidden;strokeColor=#457B9D;fontColor=#1D3557;" parent="406" vertex="1">
                    <mxGeometry x="192" width="111" height="35" as="geometry"/>
                </mxCell>
                <mxCell id="471" style="shape=partialRectangle;html=1;whiteSpace=wrap;connectable=0;fillColor=none;top=0;left=0;bottom=0;right=0;align=left;spacingLeft=6;overflow=hidden;strokeColor=#457B9D;fontColor=#1D3557;" parent="406" vertex="1">
                    <mxGeometry x="303" width="62" height="35" as="geometry"/>
                </mxCell>
                <mxCell id="468" style="shape=partialRectangle;html=1;whiteSpace=wrap;connectable=0;fillColor=none;top=0;left=0;bottom=0;right=0;align=left;spacingLeft=6;overflow=hidden;strokeColor=#457B9D;fontColor=#1D3557;" parent="406" vertex="1">
                    <mxGeometry x="365" width="75" height="35" as="geometry"/>
                </mxCell>
                <mxCell id="418" style="edgeStyle=orthogonalEdgeStyle;rounded=0;orthogonalLoop=1;jettySize=auto;html=1;exitX=0.5;exitY=1;exitDx=0;exitDy=0;" parent="375" source="375" edge="1">
                    <mxGeometry relative="1" as="geometry"/>
                </mxCell>
                <mxCell id="472" value="folders" style="shape=table;startSize=33;container=1;collapsible=0;childLayout=tableLayout;fixedRows=1;rowLines=0;fontStyle=1;align=center;fillColor=#A8DADC;strokeColor=#457B9D;fontColor=#1D3557;rounded=1;shadow=0;" parent="1" vertex="1">
                    <mxGeometry x="960" y="180" width="408" height="160" as="geometry"/>
                </mxCell>
                <mxCell id="473" style="shape=partialRectangle;html=1;whiteSpace=wrap;collapsible=0;dropTarget=0;pointerEvents=0;fillColor=none;top=0;left=0;bottom=1;right=0;points=[[0,0.5],[1,0.5]];portConstraint=eastwest;strokeColor=#457B9D;fontColor=#1D3557;" parent="472" vertex="1">
                    <mxGeometry y="33" width="408" height="42" as="geometry"/>
                </mxCell>
                <mxCell id="474" value="&lt;u&gt;id&lt;/u&gt;" style="shape=partialRectangle;html=1;whiteSpace=wrap;connectable=0;fillColor=none;top=0;left=0;bottom=0;right=0;overflow=hidden;strokeColor=#457B9D;fontColor=#1D3557;" parent="473" vertex="1">
                    <mxGeometry width="58" height="42" as="geometry"/>
                </mxCell>
                <mxCell id="543" value="user_id" style="shape=partialRectangle;html=1;whiteSpace=wrap;connectable=0;fillColor=none;top=0;left=0;bottom=0;right=0;align=left;spacingLeft=6;overflow=hidden;strokeColor=#457B9D;fontColor=#1D3557;" parent="473" vertex="1">
                    <mxGeometry x="58" width="82" height="42" as="geometry"/>
                </mxCell>
                <mxCell id="475" value="&lt;u&gt;name&lt;/u&gt;" style="shape=partialRectangle;html=1;whiteSpace=wrap;connectable=0;fillColor=none;top=0;left=0;bottom=0;right=0;align=left;spacingLeft=6;overflow=hidden;strokeColor=#457B9D;fontColor=#1D3557;" parent="473" vertex="1">
                    <mxGeometry x="140" width="88" height="42" as="geometry"/>
                </mxCell>
                <mxCell id="703" value="emoji" style="shape=partialRectangle;html=1;whiteSpace=wrap;connectable=0;fillColor=none;top=0;left=0;bottom=0;right=0;align=left;spacingLeft=6;overflow=hidden;strokeColor=#457B9D;fontColor=#1D3557;" vertex="1" parent="473">
                    <mxGeometry x="228" width="88" height="42" as="geometry"/>
                </mxCell>
                <mxCell id="540" value="is_public" style="shape=partialRectangle;html=1;whiteSpace=wrap;connectable=0;fillColor=none;top=0;left=0;bottom=0;right=0;align=left;spacingLeft=6;overflow=hidden;strokeColor=#457B9D;fontColor=#1D3557;fontStyle=4" parent="473" vertex="1">
                    <mxGeometry x="316" width="92" height="42" as="geometry"/>
                </mxCell>
                <mxCell id="479" value="" style="shape=partialRectangle;html=1;whiteSpace=wrap;collapsible=0;dropTarget=0;pointerEvents=0;fillColor=none;top=0;left=0;bottom=1;right=0;points=[[0,0.5],[1,0.5]];portConstraint=eastwest;strokeColor=#457B9D;fontColor=#1D3557;" parent="472" vertex="1">
                    <mxGeometry y="75" width="408" height="30" as="geometry"/>
                </mxCell>
                <mxCell id="480" value="1" style="shape=partialRectangle;html=1;whiteSpace=wrap;connectable=0;fillColor=none;top=0;left=0;bottom=0;right=0;overflow=hidden;strokeColor=#457B9D;fontColor=#1D3557;" parent="479" vertex="1">
                    <mxGeometry width="58" height="30" as="geometry"/>
                </mxCell>
                <mxCell id="544" value="1" style="shape=partialRectangle;html=1;whiteSpace=wrap;connectable=0;fillColor=none;top=0;left=0;bottom=0;right=0;align=left;spacingLeft=6;overflow=hidden;strokeColor=#457B9D;fontColor=#1D3557;" parent="479" vertex="1">
                    <mxGeometry x="58" width="82" height="30" as="geometry"/>
                </mxCell>
                <mxCell id="481" value="top_level" style="shape=partialRectangle;html=1;whiteSpace=wrap;connectable=0;fillColor=none;top=0;left=0;bottom=0;right=0;align=left;spacingLeft=6;overflow=hidden;strokeColor=#457B9D;fontColor=#1D3557;" parent="479" vertex="1">
                    <mxGeometry x="140" width="88" height="30" as="geometry"/>
                </mxCell>
                <mxCell id="704" style="shape=partialRectangle;html=1;whiteSpace=wrap;connectable=0;fillColor=none;top=0;left=0;bottom=0;right=0;align=left;spacingLeft=6;overflow=hidden;strokeColor=#457B9D;fontColor=#1D3557;" vertex="1" parent="479">
                    <mxGeometry x="228" width="88" height="30" as="geometry"/>
                </mxCell>
                <mxCell id="541" value="false" style="shape=partialRectangle;html=1;whiteSpace=wrap;connectable=0;fillColor=none;top=0;left=0;bottom=0;right=0;align=left;spacingLeft=6;overflow=hidden;strokeColor=#457B9D;fontColor=#1D3557;" parent="479" vertex="1">
                    <mxGeometry x="316" width="92" height="30" as="geometry"/>
                </mxCell>
                <mxCell id="485" style="shape=partialRectangle;html=1;whiteSpace=wrap;collapsible=0;dropTarget=0;pointerEvents=0;fillColor=none;top=0;left=0;bottom=1;right=0;points=[[0,0.5],[1,0.5]];portConstraint=eastwest;strokeColor=#457B9D;fontColor=#1D3557;" parent="472" vertex="1">
                    <mxGeometry y="105" width="408" height="35" as="geometry"/>
                </mxCell>
                <mxCell id="486" value="2" style="shape=partialRectangle;html=1;whiteSpace=wrap;connectable=0;fillColor=none;top=0;left=0;bottom=0;right=0;overflow=hidden;strokeColor=#457B9D;fontColor=#1D3557;" parent="485" vertex="1">
                    <mxGeometry width="58" height="35" as="geometry"/>
                </mxCell>
                <mxCell id="545" value="2" style="shape=partialRectangle;html=1;whiteSpace=wrap;connectable=0;fillColor=none;top=0;left=0;bottom=0;right=0;align=left;spacingLeft=6;overflow=hidden;strokeColor=#457B9D;fontColor=#1D3557;" parent="485" vertex="1">
                    <mxGeometry x="58" width="82" height="35" as="geometry"/>
                </mxCell>
                <mxCell id="487" value="top_level" style="shape=partialRectangle;html=1;whiteSpace=wrap;connectable=0;fillColor=none;top=0;left=0;bottom=0;right=0;align=left;spacingLeft=6;overflow=hidden;strokeColor=#457B9D;fontColor=#1D3557;" parent="485" vertex="1">
                    <mxGeometry x="140" width="88" height="35" as="geometry"/>
                </mxCell>
                <mxCell id="705" style="shape=partialRectangle;html=1;whiteSpace=wrap;connectable=0;fillColor=none;top=0;left=0;bottom=0;right=0;align=left;spacingLeft=6;overflow=hidden;strokeColor=#457B9D;fontColor=#1D3557;" vertex="1" parent="485">
                    <mxGeometry x="228" width="88" height="35" as="geometry"/>
                </mxCell>
                <mxCell id="542" value="&lt;span&gt;false&lt;/span&gt;" style="shape=partialRectangle;html=1;whiteSpace=wrap;connectable=0;fillColor=none;top=0;left=0;bottom=0;right=0;align=left;spacingLeft=6;overflow=hidden;strokeColor=#457B9D;fontColor=#1D3557;" parent="485" vertex="1">
                    <mxGeometry x="316" width="92" height="35" as="geometry"/>
                </mxCell>
                <mxCell id="491" style="edgeStyle=orthogonalEdgeStyle;rounded=0;orthogonalLoop=1;jettySize=auto;html=1;exitX=0.5;exitY=1;exitDx=0;exitDy=0;" parent="472" source="472" edge="1">
                    <mxGeometry relative="1" as="geometry"/>
                </mxCell>
                <mxCell id="512" value="folder_contents" style="shape=table;startSize=33;container=1;collapsible=0;childLayout=tableLayout;fixedRows=1;rowLines=0;fontStyle=1;align=center;fillColor=#A8DADC;strokeColor=#457B9D;fontColor=#1D3557;rounded=1;shadow=0;" parent="1" vertex="1">
                    <mxGeometry x="1158" y="436" width="403.21" height="215" as="geometry"/>
                </mxCell>
                <mxCell id="513" style="shape=partialRectangle;html=1;whiteSpace=wrap;collapsible=0;dropTarget=0;pointerEvents=0;fillColor=none;top=0;left=0;bottom=1;right=0;points=[[0,0.5],[1,0.5]];portConstraint=eastwest;strokeColor=#457B9D;fontColor=#1D3557;" parent="512" vertex="1">
                    <mxGeometry y="33" width="403.21" height="42" as="geometry"/>
                </mxCell>
                <mxCell id="514" value="&lt;u&gt;id&lt;/u&gt;" style="shape=partialRectangle;html=1;whiteSpace=wrap;connectable=0;fillColor=none;top=0;left=0;bottom=0;right=0;overflow=hidden;strokeColor=#457B9D;fontColor=#1D3557;" parent="513" vertex="1">
                    <mxGeometry width="47" height="42" as="geometry"/>
                </mxCell>
                <mxCell id="515" value="&lt;u&gt;parent_folder_id&lt;/u&gt;" style="shape=partialRectangle;html=1;whiteSpace=wrap;connectable=0;fillColor=none;top=0;left=0;bottom=0;right=0;align=left;spacingLeft=6;overflow=hidden;strokeColor=#457B9D;fontColor=#1D3557;" parent="513" vertex="1">
                    <mxGeometry x="47" width="102" height="42" as="geometry"/>
                </mxCell>
                <mxCell id="516" value="contentsable_id" style="shape=partialRectangle;html=1;whiteSpace=wrap;connectable=0;fillColor=none;top=0;left=0;bottom=0;right=0;align=left;spacingLeft=6;overflow=hidden;strokeColor=#457B9D;fontColor=#1D3557;fontStyle=4" parent="513" vertex="1">
                    <mxGeometry x="149" width="127" height="42" as="geometry"/>
                </mxCell>
                <mxCell id="688" value="contentsable_type" style="shape=partialRectangle;html=1;whiteSpace=wrap;connectable=0;fillColor=none;top=0;left=0;bottom=0;right=0;align=left;spacingLeft=6;overflow=hidden;strokeColor=#457B9D;fontColor=#1D3557;fontStyle=4" vertex="1" parent="513">
                    <mxGeometry x="276" width="127" height="42" as="geometry"/>
                </mxCell>
                <mxCell id="517" value="" style="shape=partialRectangle;html=1;whiteSpace=wrap;collapsible=0;dropTarget=0;pointerEvents=0;fillColor=none;top=0;left=0;bottom=1;right=0;points=[[0,0.5],[1,0.5]];portConstraint=eastwest;strokeColor=#457B9D;fontColor=#1D3557;" parent="512" vertex="1">
                    <mxGeometry y="75" width="403.21" height="30" as="geometry"/>
                </mxCell>
                <mxCell id="518" value="1" style="shape=partialRectangle;html=1;whiteSpace=wrap;connectable=0;fillColor=none;top=0;left=0;bottom=0;right=0;overflow=hidden;strokeColor=#457B9D;fontColor=#1D3557;" parent="517" vertex="1">
                    <mxGeometry width="47" height="30" as="geometry"/>
                </mxCell>
                <mxCell id="519" value="1" style="shape=partialRectangle;html=1;whiteSpace=wrap;connectable=0;fillColor=none;top=0;left=0;bottom=0;right=0;align=left;spacingLeft=6;overflow=hidden;strokeColor=#457B9D;fontColor=#1D3557;" parent="517" vertex="1">
                    <mxGeometry x="47" width="102" height="30" as="geometry"/>
                </mxCell>
                <mxCell id="520" value="8" style="shape=partialRectangle;html=1;whiteSpace=wrap;connectable=0;fillColor=none;top=0;left=0;bottom=0;right=0;align=left;spacingLeft=6;overflow=hidden;strokeColor=#457B9D;fontColor=#1D3557;" parent="517" vertex="1">
                    <mxGeometry x="149" width="127" height="30" as="geometry"/>
                </mxCell>
                <mxCell id="689" value="resource" style="shape=partialRectangle;html=1;whiteSpace=wrap;connectable=0;fillColor=none;top=0;left=0;bottom=0;right=0;align=left;spacingLeft=6;overflow=hidden;strokeColor=#457B9D;fontColor=#1D3557;" vertex="1" parent="517">
                    <mxGeometry x="276" width="127" height="30" as="geometry"/>
                </mxCell>
                <mxCell id="521" style="shape=partialRectangle;html=1;whiteSpace=wrap;collapsible=0;dropTarget=0;pointerEvents=0;fillColor=none;top=0;left=0;bottom=1;right=0;points=[[0,0.5],[1,0.5]];portConstraint=eastwest;strokeColor=#457B9D;fontColor=#1D3557;" parent="512" vertex="1">
                    <mxGeometry y="105" width="403.21" height="40" as="geometry"/>
                </mxCell>
                <mxCell id="522" value="2" style="shape=partialRectangle;html=1;whiteSpace=wrap;connectable=0;fillColor=none;top=0;left=0;bottom=0;right=0;overflow=hidden;strokeColor=#457B9D;fontColor=#1D3557;" parent="521" vertex="1">
                    <mxGeometry width="47" height="40" as="geometry"/>
                </mxCell>
                <mxCell id="523" value="1" style="shape=partialRectangle;html=1;whiteSpace=wrap;connectable=0;fillColor=none;top=0;left=0;bottom=0;right=0;align=left;spacingLeft=6;overflow=hidden;strokeColor=#457B9D;fontColor=#1D3557;" parent="521" vertex="1">
                    <mxGeometry x="47" width="102" height="40" as="geometry"/>
                </mxCell>
                <mxCell id="524" value="2" style="shape=partialRectangle;html=1;whiteSpace=wrap;connectable=0;fillColor=none;top=0;left=0;bottom=0;right=0;align=left;spacingLeft=6;overflow=hidden;strokeColor=#457B9D;fontColor=#1D3557;" parent="521" vertex="1">
                    <mxGeometry x="149" width="127" height="40" as="geometry"/>
                </mxCell>
                <mxCell id="690" value="folder" style="shape=partialRectangle;html=1;whiteSpace=wrap;connectable=0;fillColor=none;top=0;left=0;bottom=0;right=0;align=left;spacingLeft=6;overflow=hidden;strokeColor=#457B9D;fontColor=#1D3557;" vertex="1" parent="521">
                    <mxGeometry x="276" width="127" height="40" as="geometry"/>
                </mxCell>
                <mxCell id="693" style="shape=partialRectangle;html=1;whiteSpace=wrap;collapsible=0;dropTarget=0;pointerEvents=0;fillColor=none;top=0;left=0;bottom=1;right=0;points=[[0,0.5],[1,0.5]];portConstraint=eastwest;strokeColor=#457B9D;fontColor=#1D3557;" vertex="1" parent="512">
                    <mxGeometry y="145" width="403.21" height="35" as="geometry"/>
                </mxCell>
                <mxCell id="694" value="3" style="shape=partialRectangle;html=1;whiteSpace=wrap;connectable=0;fillColor=none;top=0;left=0;bottom=0;right=0;overflow=hidden;strokeColor=#457B9D;fontColor=#1D3557;" vertex="1" parent="693">
                    <mxGeometry width="47" height="35" as="geometry"/>
                </mxCell>
                <mxCell id="695" value="2" style="shape=partialRectangle;html=1;whiteSpace=wrap;connectable=0;fillColor=none;top=0;left=0;bottom=0;right=0;align=left;spacingLeft=6;overflow=hidden;strokeColor=#457B9D;fontColor=#1D3557;" vertex="1" parent="693">
                    <mxGeometry x="47" width="102" height="35" as="geometry"/>
                </mxCell>
                <mxCell id="696" value="3" style="shape=partialRectangle;html=1;whiteSpace=wrap;connectable=0;fillColor=none;top=0;left=0;bottom=0;right=0;align=left;spacingLeft=6;overflow=hidden;strokeColor=#457B9D;fontColor=#1D3557;" vertex="1" parent="693">
                    <mxGeometry x="149" width="127" height="35" as="geometry"/>
                </mxCell>
                <mxCell id="697" value="folder" style="shape=partialRectangle;html=1;whiteSpace=wrap;connectable=0;fillColor=none;top=0;left=0;bottom=0;right=0;align=left;spacingLeft=6;overflow=hidden;strokeColor=#457B9D;fontColor=#1D3557;" vertex="1" parent="693">
                    <mxGeometry x="276" width="127" height="35" as="geometry"/>
                </mxCell>
                <mxCell id="698" style="shape=partialRectangle;html=1;whiteSpace=wrap;collapsible=0;dropTarget=0;pointerEvents=0;fillColor=none;top=0;left=0;bottom=1;right=0;points=[[0,0.5],[1,0.5]];portConstraint=eastwest;strokeColor=#457B9D;fontColor=#1D3557;" vertex="1" parent="512">
                    <mxGeometry y="180" width="403.21" height="35" as="geometry"/>
                </mxCell>
                <mxCell id="699" value="4" style="shape=partialRectangle;html=1;whiteSpace=wrap;connectable=0;fillColor=none;top=0;left=0;bottom=0;right=0;overflow=hidden;strokeColor=#457B9D;fontColor=#1D3557;" vertex="1" parent="698">
                    <mxGeometry width="47" height="35" as="geometry"/>
                </mxCell>
                <mxCell id="700" value="3" style="shape=partialRectangle;html=1;whiteSpace=wrap;connectable=0;fillColor=none;top=0;left=0;bottom=0;right=0;align=left;spacingLeft=6;overflow=hidden;strokeColor=#457B9D;fontColor=#1D3557;" vertex="1" parent="698">
                    <mxGeometry x="47" width="102" height="35" as="geometry"/>
                </mxCell>
                <mxCell id="701" value="4" style="shape=partialRectangle;html=1;whiteSpace=wrap;connectable=0;fillColor=none;top=0;left=0;bottom=0;right=0;align=left;spacingLeft=6;overflow=hidden;strokeColor=#457B9D;fontColor=#1D3557;" vertex="1" parent="698">
                    <mxGeometry x="149" width="127" height="35" as="geometry"/>
                </mxCell>
                <mxCell id="702" value="folder" style="shape=partialRectangle;html=1;whiteSpace=wrap;connectable=0;fillColor=none;top=0;left=0;bottom=0;right=0;align=left;spacingLeft=6;overflow=hidden;strokeColor=#457B9D;fontColor=#1D3557;" vertex="1" parent="698">
                    <mxGeometry x="276" width="127" height="35" as="geometry"/>
                </mxCell>
                <mxCell id="525" style="edgeStyle=orthogonalEdgeStyle;rounded=0;orthogonalLoop=1;jettySize=auto;html=1;exitX=0.5;exitY=1;exitDx=0;exitDy=0;" parent="512" source="512" edge="1">
                    <mxGeometry relative="1" as="geometry"/>
                </mxCell>
                <mxCell id="526" value="resource" style="shape=table;startSize=33;container=1;collapsible=0;childLayout=tableLayout;fixedRows=1;rowLines=0;fontStyle=1;align=center;fillColor=#A8DADC;strokeColor=#457B9D;fontColor=#1D3557;rounded=1;shadow=0;" parent="1" vertex="1">
                    <mxGeometry x="1447" y="150" width="363" height="140" as="geometry"/>
                </mxCell>
                <mxCell id="527" style="shape=partialRectangle;html=1;whiteSpace=wrap;collapsible=0;dropTarget=0;pointerEvents=0;fillColor=none;top=0;left=0;bottom=1;right=0;points=[[0,0.5],[1,0.5]];portConstraint=eastwest;strokeColor=#457B9D;fontColor=#1D3557;" parent="526" vertex="1">
                    <mxGeometry y="33" width="363" height="42" as="geometry"/>
                </mxCell>
                <mxCell id="528" value="&lt;u&gt;id&lt;/u&gt;" style="shape=partialRectangle;html=1;whiteSpace=wrap;connectable=0;fillColor=none;top=0;left=0;bottom=0;right=0;overflow=hidden;strokeColor=#457B9D;fontColor=#1D3557;" parent="527" vertex="1">
                    <mxGeometry width="36" height="42" as="geometry"/>
                </mxCell>
                <mxCell id="529" value="&lt;u&gt;name&lt;/u&gt;" style="shape=partialRectangle;html=1;whiteSpace=wrap;connectable=0;fillColor=none;top=0;left=0;bottom=0;right=0;align=left;spacingLeft=6;overflow=hidden;strokeColor=#457B9D;fontColor=#1D3557;" parent="527" vertex="1">
                    <mxGeometry x="36" width="117" height="42" as="geometry"/>
                </mxCell>
                <mxCell id="530" value="url" style="shape=partialRectangle;html=1;whiteSpace=wrap;connectable=0;fillColor=none;top=0;left=0;bottom=0;right=0;align=left;spacingLeft=6;overflow=hidden;strokeColor=#457B9D;fontColor=#1D3557;fontStyle=4" parent="527" vertex="1">
                    <mxGeometry x="153" width="105" height="42" as="geometry"/>
                </mxCell>
                <mxCell id="678" value="emoji" style="shape=partialRectangle;html=1;whiteSpace=wrap;connectable=0;fillColor=none;top=0;left=0;bottom=0;right=0;align=left;spacingLeft=6;overflow=hidden;strokeColor=#457B9D;fontColor=#1D3557;fontStyle=4" vertex="1" parent="527">
                    <mxGeometry x="258" width="105" height="42" as="geometry"/>
                </mxCell>
                <mxCell id="531" value="" style="shape=partialRectangle;html=1;whiteSpace=wrap;collapsible=0;dropTarget=0;pointerEvents=0;fillColor=none;top=0;left=0;bottom=1;right=0;points=[[0,0.5],[1,0.5]];portConstraint=eastwest;strokeColor=#457B9D;fontColor=#1D3557;" parent="526" vertex="1">
                    <mxGeometry y="75" width="363" height="30" as="geometry"/>
                </mxCell>
                <mxCell id="532" value="1" style="shape=partialRectangle;html=1;whiteSpace=wrap;connectable=0;fillColor=none;top=0;left=0;bottom=0;right=0;overflow=hidden;strokeColor=#457B9D;fontColor=#1D3557;" parent="531" vertex="1">
                    <mxGeometry width="36" height="30" as="geometry"/>
                </mxCell>
                <mxCell id="533" value="" style="shape=partialRectangle;html=1;whiteSpace=wrap;connectable=0;fillColor=none;top=0;left=0;bottom=0;right=0;align=left;spacingLeft=6;overflow=hidden;strokeColor=#457B9D;fontColor=#1D3557;" parent="531" vertex="1">
                    <mxGeometry x="36" width="117" height="30" as="geometry"/>
                </mxCell>
                <mxCell id="534" value="" style="shape=partialRectangle;html=1;whiteSpace=wrap;connectable=0;fillColor=none;top=0;left=0;bottom=0;right=0;align=left;spacingLeft=6;overflow=hidden;strokeColor=#457B9D;fontColor=#1D3557;" parent="531" vertex="1">
                    <mxGeometry x="153" width="105" height="30" as="geometry"/>
                </mxCell>
                <mxCell id="679" style="shape=partialRectangle;html=1;whiteSpace=wrap;connectable=0;fillColor=none;top=0;left=0;bottom=0;right=0;align=left;spacingLeft=6;overflow=hidden;strokeColor=#457B9D;fontColor=#1D3557;" vertex="1" parent="531">
                    <mxGeometry x="258" width="105" height="30" as="geometry"/>
                </mxCell>
                <mxCell id="535" style="shape=partialRectangle;html=1;whiteSpace=wrap;collapsible=0;dropTarget=0;pointerEvents=0;fillColor=none;top=0;left=0;bottom=1;right=0;points=[[0,0.5],[1,0.5]];portConstraint=eastwest;strokeColor=#457B9D;fontColor=#1D3557;" parent="526" vertex="1">
                    <mxGeometry y="105" width="363" height="35" as="geometry"/>
                </mxCell>
                <mxCell id="536" value="2" style="shape=partialRectangle;html=1;whiteSpace=wrap;connectable=0;fillColor=none;top=0;left=0;bottom=0;right=0;overflow=hidden;strokeColor=#457B9D;fontColor=#1D3557;" parent="535" vertex="1">
                    <mxGeometry width="36" height="35" as="geometry"/>
                </mxCell>
                <mxCell id="537" value="" style="shape=partialRectangle;html=1;whiteSpace=wrap;connectable=0;fillColor=none;top=0;left=0;bottom=0;right=0;align=left;spacingLeft=6;overflow=hidden;strokeColor=#457B9D;fontColor=#1D3557;" parent="535" vertex="1">
                    <mxGeometry x="36" width="117" height="35" as="geometry"/>
                </mxCell>
                <mxCell id="538" style="shape=partialRectangle;html=1;whiteSpace=wrap;connectable=0;fillColor=none;top=0;left=0;bottom=0;right=0;align=left;spacingLeft=6;overflow=hidden;strokeColor=#457B9D;fontColor=#1D3557;" parent="535" vertex="1">
                    <mxGeometry x="153" width="105" height="35" as="geometry"/>
                </mxCell>
                <mxCell id="680" style="shape=partialRectangle;html=1;whiteSpace=wrap;connectable=0;fillColor=none;top=0;left=0;bottom=0;right=0;align=left;spacingLeft=6;overflow=hidden;strokeColor=#457B9D;fontColor=#1D3557;" vertex="1" parent="535">
                    <mxGeometry x="258" width="105" height="35" as="geometry"/>
                </mxCell>
                <mxCell id="539" style="edgeStyle=orthogonalEdgeStyle;rounded=0;orthogonalLoop=1;jettySize=auto;html=1;exitX=0.5;exitY=1;exitDx=0;exitDy=0;" parent="526" source="526" edge="1">
                    <mxGeometry relative="1" as="geometry"/>
                </mxCell>
                <mxCell id="593" value="&lt;font color=&quot;#000000&quot;&gt;&lt;span style=&quot;font-size: 17px&quot;&gt;Make notes here&lt;/span&gt;&lt;/font&gt;" style="rounded=1;whiteSpace=wrap;html=1;fillColor=#A8DADC;strokeColor=#000000;perimeterSpacing=0;" parent="1" vertex="1">
                    <mxGeometry x="-565" y="450" width="232" height="196" as="geometry"/>
                </mxCell>
                <mxCell id="594" value="notes" style="shape=table;startSize=30;container=1;collapsible=0;childLayout=tableLayout;fixedRows=1;rowLines=0;fontStyle=1;align=center;fillColor=#A8DADC;strokeColor=#457B9D;fontColor=#1D3557;rounded=1;shadow=0;" parent="1" vertex="1">
                    <mxGeometry x="426" y="466" width="397" height="113.93511962890614" as="geometry"/>
                </mxCell>
                <mxCell id="595" style="shape=partialRectangle;html=1;whiteSpace=wrap;collapsible=0;dropTarget=0;pointerEvents=0;fillColor=none;top=0;left=0;bottom=1;right=0;points=[[0,0.5],[1,0.5]];portConstraint=eastwest;strokeColor=#457B9D;fontColor=#1D3557;" parent="594" vertex="1">
                    <mxGeometry y="30" width="397" height="20" as="geometry"/>
                </mxCell>
                <mxCell id="596" value="&lt;u&gt;id&lt;/u&gt;" style="shape=partialRectangle;html=1;whiteSpace=wrap;connectable=0;fillColor=none;top=0;left=0;bottom=0;right=0;overflow=hidden;strokeColor=#457B9D;fontColor=#1D3557;" parent="595" vertex="1">
                    <mxGeometry width="66" height="20" as="geometry"/>
                </mxCell>
                <mxCell id="597" value="text:text" style="shape=partialRectangle;html=1;whiteSpace=wrap;connectable=0;fillColor=none;top=0;left=0;bottom=0;right=0;align=left;spacingLeft=6;overflow=hidden;strokeColor=#457B9D;fontColor=#1D3557;" parent="595" vertex="1">
                    <mxGeometry x="66" width="93" height="20" as="geometry"/>
                </mxCell>
                <mxCell id="598" value="&lt;u&gt;belongsable_type&lt;/u&gt;" style="shape=partialRectangle;html=1;whiteSpace=wrap;connectable=0;fillColor=none;top=0;left=0;bottom=0;right=0;align=left;spacingLeft=6;overflow=hidden;strokeColor=#457B9D;fontColor=#1D3557;" parent="595" vertex="1">
                    <mxGeometry x="159" width="121" height="20" as="geometry"/>
                </mxCell>
                <mxCell id="599" value="belongsable_id" style="shape=partialRectangle;html=1;whiteSpace=wrap;connectable=0;fillColor=none;top=0;left=0;bottom=0;right=0;align=left;spacingLeft=6;overflow=hidden;strokeColor=#457B9D;fontColor=#1D3557;fontStyle=4" parent="595" vertex="1">
                    <mxGeometry x="280" width="117" height="20" as="geometry"/>
                </mxCell>
                <mxCell id="601" value="" style="shape=partialRectangle;html=1;whiteSpace=wrap;collapsible=0;dropTarget=0;pointerEvents=0;fillColor=none;top=0;left=0;bottom=1;right=0;points=[[0,0.5],[1,0.5]];portConstraint=eastwest;strokeColor=#457B9D;fontColor=#1D3557;" parent="594" vertex="1">
                    <mxGeometry y="50" width="397" height="30" as="geometry"/>
                </mxCell>
                <mxCell id="602" value="1" style="shape=partialRectangle;html=1;whiteSpace=wrap;connectable=0;fillColor=none;top=0;left=0;bottom=0;right=0;overflow=hidden;strokeColor=#457B9D;fontColor=#1D3557;" parent="601" vertex="1">
                    <mxGeometry width="66" height="30" as="geometry"/>
                </mxCell>
                <mxCell id="603" value="asdfasdf" style="shape=partialRectangle;html=1;whiteSpace=wrap;connectable=0;fillColor=none;top=0;left=0;bottom=0;right=0;align=left;spacingLeft=6;overflow=hidden;strokeColor=#457B9D;fontColor=#1D3557;" parent="601" vertex="1">
                    <mxGeometry x="66" width="93" height="30" as="geometry"/>
                </mxCell>
                <mxCell id="604" value="folder" style="shape=partialRectangle;html=1;whiteSpace=wrap;connectable=0;fillColor=none;top=0;left=0;bottom=0;right=0;align=left;spacingLeft=6;overflow=hidden;strokeColor=#457B9D;fontColor=#1D3557;" parent="601" vertex="1">
                    <mxGeometry x="159" width="121" height="30" as="geometry"/>
                </mxCell>
                <mxCell id="605" value="1" style="shape=partialRectangle;html=1;whiteSpace=wrap;connectable=0;fillColor=none;top=0;left=0;bottom=0;right=0;align=left;spacingLeft=6;overflow=hidden;strokeColor=#457B9D;fontColor=#1D3557;" parent="601" vertex="1">
                    <mxGeometry x="280" width="117" height="30" as="geometry"/>
                </mxCell>
                <mxCell id="607" style="shape=partialRectangle;html=1;whiteSpace=wrap;collapsible=0;dropTarget=0;pointerEvents=0;fillColor=none;top=0;left=0;bottom=1;right=0;points=[[0,0.5],[1,0.5]];portConstraint=eastwest;strokeColor=#457B9D;fontColor=#1D3557;" parent="594" vertex="1">
                    <mxGeometry y="80" width="397" height="32" as="geometry"/>
                </mxCell>
                <mxCell id="608" value="2" style="shape=partialRectangle;html=1;whiteSpace=wrap;connectable=0;fillColor=none;top=0;left=0;bottom=0;right=0;overflow=hidden;strokeColor=#457B9D;fontColor=#1D3557;" parent="607" vertex="1">
                    <mxGeometry width="66" height="32" as="geometry"/>
                </mxCell>
                <mxCell id="609" value="blahblah" style="shape=partialRectangle;html=1;whiteSpace=wrap;connectable=0;fillColor=none;top=0;left=0;bottom=0;right=0;align=left;spacingLeft=6;overflow=hidden;strokeColor=#457B9D;fontColor=#1D3557;" parent="607" vertex="1">
                    <mxGeometry x="66" width="93" height="32" as="geometry"/>
                </mxCell>
                <mxCell id="610" value="resource" style="shape=partialRectangle;html=1;whiteSpace=wrap;connectable=0;fillColor=none;top=0;left=0;bottom=0;right=0;align=left;spacingLeft=6;overflow=hidden;strokeColor=#457B9D;fontColor=#1D3557;" parent="607" vertex="1">
                    <mxGeometry x="159" width="121" height="32" as="geometry"/>
                </mxCell>
                <mxCell id="611" value="1" style="shape=partialRectangle;html=1;whiteSpace=wrap;connectable=0;fillColor=none;top=0;left=0;bottom=0;right=0;align=left;spacingLeft=6;overflow=hidden;strokeColor=#457B9D;fontColor=#1D3557;" parent="607" vertex="1">
                    <mxGeometry x="280" width="117" height="32" as="geometry"/>
                </mxCell>
                <mxCell id="613" style="edgeStyle=orthogonalEdgeStyle;rounded=0;orthogonalLoop=1;jettySize=auto;html=1;exitX=0.5;exitY=1;exitDx=0;exitDy=0;" parent="594" source="594" edge="1">
                    <mxGeometry relative="1" as="geometry"/>
                </mxCell>
                <mxCell id="614" value="&lt;font color=&quot;#000000&quot;&gt;&lt;span style=&quot;font-size: 17px&quot;&gt;Make notes here&lt;/span&gt;&lt;/font&gt;" style="rounded=1;whiteSpace=wrap;html=1;fillColor=#A8DADC;strokeColor=#000000;perimeterSpacing=0;" parent="1" vertex="1">
                    <mxGeometry x="2226" y="84" width="232" height="196" as="geometry"/>
                </mxCell>
                <mxCell id="615" value="&lt;font color=&quot;#000000&quot;&gt;&lt;span style=&quot;font-size: 17px&quot;&gt;All users have a &quot;top_level&quot; folder that un-assigned resources will be assigned to&lt;/span&gt;&lt;/font&gt;" style="rounded=1;whiteSpace=wrap;html=1;fillColor=#A8DADC;strokeColor=#000000;perimeterSpacing=0;" parent="1" vertex="1">
                    <mxGeometry x="1385" y="715" width="232" height="196" as="geometry"/>
                </mxCell>
                <mxCell id="617" value="" style="edgeStyle=elbowEdgeStyle;elbow=horizontal;endArrow=ERmany;html=1;strokeColor=#007FFF;strokeWidth=2;endFill=0;entryX=0.229;entryY=0.048;entryDx=0;entryDy=0;entryPerimeter=0;" parent="1" source="375" target="473" edge="1">
                    <mxGeometry width="50" height="50" relative="1" as="geometry">
                        <mxPoint x="1551" y="294" as="sourcePoint"/>
                        <mxPoint x="1178" y="722" as="targetPoint"/>
                        <Array as="points">
                            <mxPoint x="968" y="122"/>
                            <mxPoint x="1468" y="476"/>
                            <mxPoint x="1152.75" y="432"/>
                            <mxPoint x="1404.75" y="665"/>
                            <mxPoint x="1409.75" y="662"/>
                        </Array>
                    </mxGeometry>
                </mxCell>
                <mxCell id="676" value="" style="edgeStyle=elbowEdgeStyle;elbow=horizontal;endArrow=ERmany;html=1;strokeColor=#007FFF;strokeWidth=2;endFill=0;" parent="1" source="527" target="513" edge="1">
                    <mxGeometry width="50" height="50" relative="1" as="geometry">
                        <mxPoint x="1457" y="191" as="sourcePoint"/>
                        <mxPoint x="1435" y="462" as="targetPoint"/>
                        <Array as="points">
                            <mxPoint x="1435" y="493"/>
                            <mxPoint x="1435" y="331"/>
                            <mxPoint x="1476" y="293"/>
                            <mxPoint x="1553" y="355"/>
                            <mxPoint x="1445" y="327"/>
                            <mxPoint x="1445" y="319"/>
                            <mxPoint x="1445" y="317"/>
                            <mxPoint x="1457" y="244"/>
                            <mxPoint x="1413" y="479"/>
                            <mxPoint x="1097.75" y="435"/>
                            <mxPoint x="1349.75" y="668"/>
                            <mxPoint x="1354.75" y="665"/>
                        </Array>
                    </mxGeometry>
                </mxCell>
                <mxCell id="677" value="" style="edgeStyle=elbowEdgeStyle;elbow=horizontal;endArrow=ERmany;html=1;strokeColor=#007FFF;strokeWidth=2;endFill=0;" parent="1" source="473" target="513" edge="1">
                    <mxGeometry width="50" height="50" relative="1" as="geometry">
                        <mxPoint x="893" y="354" as="sourcePoint"/>
                        <mxPoint x="1123" y="725" as="targetPoint"/>
                        <Array as="points">
                            <mxPoint x="909" y="382"/>
                            <mxPoint x="918" y="343"/>
                            <mxPoint x="1220" y="391"/>
                            <mxPoint x="1413" y="479"/>
                            <mxPoint x="1097.75" y="435"/>
                            <mxPoint x="1349.75" y="668"/>
                            <mxPoint x="1354.75" y="665"/>
                        </Array>
                    </mxGeometry>
                </mxCell>
            </root>
        </mxGraphModel>
    </diagram>
</mxfile>